<?xml version="1.0" encoding="iso-8859-1"?>
<!-- Generator: Adobe Illustrator 16.0.0, SVG Export Plug-In . SVG Version: 6.00 Build 0)  -->
<!DOCTYPE svg PUBLIC "-//W3C//DTD SVG 1.1//EN" "http://www.w3.org/Graphics/SVG/1.1/DTD/svg11.dtd">
<svg version="1.1" id="Capa_1" xmlns="http://www.w3.org/2000/svg" xmlns:xlink="http://www.w3.org/1999/xlink" x="0px" y="0px"
	 width="504.212px" height="504.212px" viewBox="0 0 504.212 504.212" style="enable-background:new 0 0 504.212 504.212;"
	 xml:space="preserve">
<g>
	<g>
		<path d="M483.25,93.254L272.11,264.078c-11.245,9.182-29.682,9.182-40.927,0L20.043,93.254C12.852,87.44,0,92.489,0,103.046
			v298.122c0,14.457,11.857,26.314,26.316,26.314h451.58c14.458,0,26.316-11.857,26.316-26.314V103.046
			C504.135,91.265,491.742,86.445,483.25,93.254z"/>
		<path d="M53.473,93.254l178.322,144.203c11.246,9.027,29.682,9.027,40.928,0L450.968,93.254
			c11.245-9.027,8.645-16.524-5.814-16.524H59.288C44.676,76.807,42.228,84.227,53.473,93.254z"/>
	</g>
</g>
</svg>
